<svg width="1110" height="671" viewBox="0 0 1110 671" fill="none" xmlns="http://www.w3.org/2000/svg">
<path d="M53.9382 51.5931H0V4.69028H159.47V51.5931H105.531V333.01H53.9382V51.5931Z" fill="white"/>
<path d="M173.772 4.69028H225.365V138.363H280.711V4.69028H332.304V333.01H280.711V185.266H225.365V333.01H173.772V4.69028Z" fill="white"/>
<path d="M434.626 337.7C409.298 337.7 389.912 330.508 376.466 316.125C363.021 301.741 356.298 281.417 356.298 255.151V82.5489C356.298 56.2834 363.021 35.9588 376.466 21.5753C389.912 7.19176 409.298 0 434.626 0C459.953 0 479.34 7.19176 492.785 21.5753C506.231 35.9588 512.954 56.2834 512.954 82.5489V255.151C512.954 281.417 506.231 301.741 492.785 316.125C479.34 330.508 459.953 337.7 434.626 337.7ZM434.626 290.797C452.449 290.797 461.361 280.01 461.361 258.434V79.2657C461.361 57.6905 452.449 46.9028 434.626 46.9028C416.803 46.9028 407.891 57.6905 407.891 79.2657V258.434C407.891 280.01 416.803 290.797 434.626 290.797Z" fill="white"/>
<path d="M537.168 4.69028H610.806L643.637 239.673H644.576L677.407 4.69028H751.045V333.01H702.266V84.425H701.328L663.806 333.01H620.655L583.133 84.425H582.195V333.01H537.168V4.69028Z" fill="white"/>
<path d="M818.736 4.69028H888.621L942.091 333.01H890.497L881.117 267.815V268.753H822.488L813.108 333.01H765.267L818.736 4.69028ZM875.019 224.195L852.037 61.9117H851.099L828.586 224.195H875.019Z" fill="white"/>
<path d="M1022.14 337.7C997.126 337.7 978.209 330.665 965.389 316.594C952.569 302.21 946.159 281.73 946.159 255.151V236.39H994.938V258.903C994.938 280.166 1003.85 290.797 1021.67 290.797C1030.43 290.797 1036.99 288.296 1041.37 283.293C1046.06 277.977 1048.41 269.535 1048.41 257.965C1048.41 244.207 1045.28 232.169 1039.03 221.85C1032.77 211.219 1021.2 198.555 1004.32 183.859C983.056 165.098 968.203 148.213 959.761 133.204C951.318 117.882 947.097 100.685 947.097 81.6109C947.097 55.658 953.663 35.6461 966.796 21.5753C979.929 7.19176 999.003 0 1024.02 0C1048.72 0 1067.32 7.19176 1079.83 21.5753C1092.65 35.6461 1099.06 55.9707 1099.06 82.5489V96.1508H1050.28V79.2657C1050.28 68.0091 1048.09 59.8792 1043.72 54.8763C1039.34 49.5606 1032.93 46.9028 1024.49 46.9028C1007.29 46.9028 998.69 57.3778 998.69 78.3277C998.69 90.2097 1001.82 101.31 1008.07 111.629C1014.64 121.947 1026.36 134.455 1043.25 149.151C1064.82 167.912 1079.68 184.953 1087.81 200.275C1095.94 215.597 1100 233.576 1100 254.213C1100 281.104 1093.28 301.741 1079.83 316.125C1066.7 330.508 1047.47 337.7 1022.14 337.7Z" fill="white"/>
<path d="M82.1611 670.306C58.2939 670.306 40.2444 663.593 28.0124 650.168C15.7805 636.444 9.66455 616.903 9.66455 591.544V573.644H56.2055V595.124C56.2055 615.411 64.7082 625.555 81.7136 625.555C90.0671 625.555 96.3322 623.168 100.509 618.395C104.984 613.323 107.222 605.268 107.222 594.229C107.222 581.102 104.238 569.616 98.2714 559.771C92.3046 549.627 81.2661 537.545 65.1557 523.523C44.8686 505.622 30.6975 489.512 22.6423 475.192C14.5872 460.573 10.5596 444.164 10.5596 425.966C10.5596 401.203 16.8247 382.11 29.355 368.684C41.8852 354.961 60.0839 348.099 83.9511 348.099C107.52 348.099 125.271 354.961 137.205 368.684C149.437 382.11 155.553 401.502 155.553 426.861V439.838H109.012V423.728C109.012 412.988 106.923 405.231 102.747 400.458C98.5698 395.386 92.4538 392.85 84.3986 392.85C67.9899 392.85 59.7856 402.844 59.7856 422.833C59.7856 434.17 62.769 444.761 68.7358 454.606C75.0009 464.451 86.1887 476.385 102.299 490.407C122.884 508.307 137.056 524.567 144.812 539.186C152.569 553.804 156.448 570.959 156.448 590.649C156.448 616.306 150.033 635.997 137.205 649.72C124.674 663.444 106.327 670.306 82.1611 670.306Z" fill="white"/>
<path d="M246.087 670.306C222.22 670.306 204.021 663.593 191.491 650.168C178.96 636.444 172.695 616.903 172.695 591.544V352.574H221.921V595.124C221.921 605.864 224.01 613.621 228.186 618.395C232.661 623.168 238.927 625.555 246.982 625.555C255.037 625.555 261.153 623.168 265.33 618.395C269.805 613.621 272.042 605.864 272.042 595.124V352.574H319.478V591.544C319.478 616.903 313.213 636.444 300.683 650.168C288.153 663.593 269.954 670.306 246.087 670.306Z" fill="white"/>
<path d="M344.351 352.574H414.61L445.936 576.776H446.831L478.156 352.574H548.415V665.831H501.874V428.651H500.979L465.178 665.831H424.008L388.207 428.651H387.312V665.831H344.351V352.574Z" fill="white"/>
<path d="M574.962 352.574H645.221L676.547 576.776H677.442L708.768 352.574H779.027V665.831H732.486V428.651H731.591L695.79 665.831H654.619L618.818 428.651H617.923V665.831H574.962V352.574Z" fill="white"/>
<path d="M805.574 352.574H939.827V397.325H854.8V480.114H922.374V524.865H854.8V621.08H939.827V665.831H805.574V352.574Z" fill="white"/>
<path d="M957.959 352.574H1030.9C1056.26 352.574 1074.76 358.541 1086.39 370.474C1098.03 382.11 1103.85 400.159 1103.85 424.623V443.866C1103.85 476.385 1093.11 496.97 1071.63 505.622V506.517C1083.56 510.097 1091.91 517.407 1096.69 528.445C1101.76 539.484 1104.29 554.252 1104.29 572.749V627.792C1104.29 636.743 1104.59 644.052 1105.19 649.72C1105.79 655.09 1107.28 660.461 1109.66 665.831H1059.54C1057.75 660.759 1056.56 655.986 1055.96 651.51C1055.37 647.035 1055.07 638.98 1055.07 627.345V570.064C1055.07 555.743 1052.68 545.749 1047.91 540.081C1043.43 534.412 1035.53 531.578 1024.19 531.578H1007.18V665.831H957.959V352.574ZM1025.09 486.827C1034.93 486.827 1042.24 484.291 1047.01 479.219C1052.09 474.147 1054.62 465.645 1054.62 453.711V429.546C1054.62 418.209 1052.53 410.004 1048.36 404.933C1044.48 399.861 1038.21 397.325 1029.56 397.325H1007.18V486.827H1025.09Z" fill="white"/>
</svg>
