<svg width="187" height="37" viewBox="0 0 187 37" fill="none" xmlns="http://www.w3.org/2000/svg">
<path d="M68.9951 8.11788C69.8013 8.97971 70.2461 10.1751 70.2739 11.3428C70.2739 11.8988 70.1627 12.4548 69.9681 12.9831C69.8847 13.2055 69.7735 13.4279 69.6623 13.6503C69.5233 13.8727 69.2175 14.1229 69.1341 14.3731C68.9117 14.9847 69.9403 15.6797 70.4685 15.6797C71.386 15.6797 71.9698 13.9005 72.1088 13.1777C72.5258 10.9258 71.2192 8.67389 69.6623 7.14484C67.744 5.25437 65.1029 4.36474 62.5175 3.78092C56.29 2.30746 49.868 2.27966 43.5016 2.78008C37.0239 3.2805 30.5741 4.14233 24.1521 5.22657C17.7856 6.31081 11.447 7.64526 5.16397 9.20211C4.41334 9.39672 3.63492 9.59133 2.88429 9.78594C2.52288 9.89714 2.13366 9.98054 1.74445 10.0917C1.49424 10.1751 0.966019 10.1751 0.771412 10.3976C0.131989 11.1204 1.74445 11.8154 2.21706 11.9544C5.30298 12.844 8.38889 13.7059 11.4748 14.6511C14.1993 15.5129 16.9238 16.5138 19.3147 18.0984C21.4832 19.5719 23.3458 21.4624 24.8193 23.6308C26.2927 25.7993 27.377 28.218 28.0164 30.7201C28.1554 31.3317 28.2944 31.9433 28.3778 32.5828C28.4612 33.0832 28.4612 33.4446 28.8226 33.806C29.0728 34.0562 29.4621 34.3342 29.8235 34.3898C30.4073 34.4732 30.3517 34.0284 30.3795 33.5558C30.7131 27.1338 30.5741 20.6839 30.0181 14.2897C29.9347 13.1777 30.1015 12.0378 28.9338 11.5096C27.6272 10.9536 28.072 12.5104 28.1554 13.2889C28.4334 16.5416 28.6002 19.8221 28.6558 23.0748C28.6836 24.6595 28.7114 26.2163 28.6836 27.801C27.2102 24.3259 24.9305 21.24 22.0948 18.7657C19.0923 16.1802 15.5059 14.5955 11.7528 13.3723C9.36192 12.5938 6.94324 11.9266 4.52455 11.2316C13.1985 8.97971 22.0114 7.20044 30.9077 5.9216C39.526 4.67055 48.3111 3.4195 57.0407 4.30914C59.2925 4.53155 61.5722 4.92076 63.7685 5.44898C65.659 5.9494 67.6328 6.61662 68.9951 8.11788ZM44.6814 24.1591C44.4034 25.4379 43.7917 26.6611 43.0967 27.7454C42.7353 28.2736 42.3739 28.8018 41.9291 29.2744C41.7901 29.3856 41.6789 29.4969 41.5121 29.6081C41.2896 28.2458 41.234 26.7724 41.0672 25.4379C41.0116 24.9097 40.122 24.2147 39.566 24.3537C38.1203 24.7429 37.1751 25.6325 36.4801 26.7724C36.4245 26.2163 36.3967 25.6603 36.3689 25.1043C38.5373 22.074 40.4 18.7935 41.7901 15.3461C43.1523 11.9544 44.598 7.64526 43.6249 3.97552C43.2635 2.61328 42.3461 1.11202 40.817 0.889613C39.2046 0.667205 38.1481 2.64108 37.6199 3.89212C36.0353 7.64526 35.2568 11.9266 34.812 15.9578C34.5062 18.6545 34.395 21.379 34.5062 24.1035C34.4784 24.1869 34.4784 24.2981 34.5062 24.4093C34.5896 26.3553 34.7842 28.3014 35.0622 30.2475C35.1456 30.8035 36.6469 31.9155 36.9249 31.0259C37.4253 29.4412 38.0369 27.6342 39.3714 26.6055C39.5938 29.052 40.122 32.6384 42.7075 31.2761C44.6814 30.2475 46.0992 27.1894 46.5162 25.1043C46.683 24.3537 44.8482 23.2694 44.6814 24.1591ZM36.6469 16.9308C36.9249 14.5955 37.3141 12.2602 37.8979 9.98054C38.3983 7.97887 38.871 5.75479 39.9274 4.00333C40.1776 3.58631 40.4556 3.14149 40.817 2.83568C41.5677 2.16846 41.6789 2.89129 41.8457 3.55851C42.0959 4.61495 42.0681 5.72699 41.9569 6.78343C41.7345 8.8685 41.2062 10.898 40.5112 12.8718C39.4548 15.8188 38.0369 18.6545 36.3411 21.3234C36.3967 19.8499 36.4801 18.3764 36.6469 16.9308ZM52.0862 24.6317C50.8352 25.9383 49.7231 25.9661 48.5277 24.5483C48.4165 24.0757 48.2497 23.603 48.0829 23.1582C47.9717 22.8524 47.5268 22.5744 47.1376 22.4076C46.8596 22.213 46.526 22.074 46.3036 22.1296C44.7745 22.491 44.1907 25.5213 43.9961 26.828C43.7459 28.4126 43.8293 30.3865 45.6364 30.9703C47.1932 31.4985 48.3053 30.1363 48.6945 28.774C48.8891 27.9956 48.9447 27.1894 48.8613 26.3553C49.6675 27.3284 52.3364 26.9114 53.8655 25.3545C54.3937 24.8263 52.6978 24.0479 52.0862 24.6317ZM46.8318 27.801C46.665 28.4404 46.2758 28.7184 45.9422 29.2466C45.7754 29.4969 45.831 29.7193 45.7754 29.4691C45.692 29.1354 45.7476 28.7462 45.7754 28.4126C45.831 27.8566 45.9144 27.3006 46.0534 26.7724C46.1924 26.1885 46.387 25.6047 46.6372 25.0487C46.6928 24.9375 46.7484 24.7429 46.8318 24.5205C46.9708 25.1599 47.0542 25.8271 47.0264 26.4665C46.9986 26.9114 46.9708 27.384 46.8318 27.801ZM72.3575 23.9645C72.0239 24.6317 71.6347 25.2989 71.2455 25.9383C70.745 26.7446 69.9666 28.2736 68.9936 28.5794C68.0761 28.8852 67.7425 27.6342 67.1309 27.1894C66.6305 26.8558 66.0467 26.7168 65.5184 27.0226C64.5454 27.523 63.7392 28.3848 62.8495 28.9686C62.7105 29.0798 62.5715 29.1632 62.4047 29.2466C62.4603 29.7193 62.4603 29.7471 62.4047 29.33C62.3213 28.774 62.2935 28.1902 62.2657 27.6342C62.1545 26.2719 62.2935 24.1591 60.4309 23.9088C59.0964 23.742 57.5674 25.7715 56.7333 26.5777C56.0661 27.1894 55.4267 27.8288 54.6482 28.2736C54.537 28.357 54.4536 28.4126 54.3424 28.4682C54.3146 28.3014 54.2868 28.1902 54.2868 28.079C54.2312 26.7724 54.4258 25.4379 54.6204 24.1313C54.7317 23.3806 52.8968 22.3242 52.7578 23.186C52.4798 25.0487 51.6457 28.6072 53.5084 29.9139C54.8429 30.8591 56.2329 29.7749 57.2615 28.913C57.8732 28.4126 58.4292 27.8566 58.9852 27.3284C59.3466 26.967 59.8192 26.4109 60.3475 25.9939C60.3475 26.1051 60.3475 26.2163 60.3753 26.3275C60.4309 27.0226 60.4587 27.7454 60.5143 28.4404C60.6255 29.33 60.9313 30.1085 61.7375 30.5811C63.5724 31.7487 65.1848 29.7471 66.7139 28.6906C66.7695 28.7462 66.7973 28.8018 66.8529 28.8296C67.0753 29.052 67.2977 29.2744 67.5479 29.4412C68.0761 29.8305 68.7156 30.1085 69.355 30.1919C70.2446 30.3031 70.8284 29.8861 71.4123 29.2744C72.5243 28.1346 73.3583 26.6333 74.0812 25.2155C74.4704 24.4649 72.7189 23.2972 72.3575 23.9645ZM80.806 24.1313C80.5835 24.7707 80.2499 25.4101 79.8885 26.0217C79.6661 26.4109 79.4159 26.7724 79.1379 27.1338C78.9155 27.4396 78.4707 27.6898 78.2483 27.9956C78.1093 27.6342 78.0537 27.2172 77.9981 26.8558C77.9147 26.2997 77.859 25.7437 77.8312 25.1877C77.8312 25.1321 77.8312 25.0765 77.8312 24.9931C77.8312 24.9375 77.8034 24.8819 77.8034 24.8263C77.8034 24.6595 77.72 23.9366 77.4142 23.742C76.6358 23.2138 76.2744 23.4362 76.1354 23.9645C76.1076 23.9923 76.0798 24.0201 76.052 24.0757C75.6906 24.9375 75.218 25.7715 74.6619 26.5499C74.3561 26.9114 74.0503 27.3006 73.6889 27.6342C73.6889 27.6342 73.6611 27.6342 73.6333 27.662C73.6333 27.4118 73.6333 27.1616 73.6889 26.9392C73.8557 25.2989 75.0233 22.1574 77.1362 22.491C77.6088 22.5466 77.7756 22.213 77.6366 21.8238C77.4698 21.3512 76.8582 20.9897 76.4134 20.9341C74.7731 20.6839 73.5777 21.6848 72.7993 23.0748C72.0764 24.3537 71.3536 26.3553 71.9652 27.8288C72.3544 28.8296 73.6611 29.8027 74.7731 29.3578C75.4682 29.0798 76.0798 28.4126 76.5802 27.662C76.6914 28.1346 76.8026 28.4404 76.8026 28.4404C77.1362 29.0242 77.6366 29.4691 78.3317 29.6637C80.5279 30.2753 82.1126 26.6611 82.6686 25.0765C82.9188 24.3815 81.1118 23.2416 80.806 24.1313ZM88.352 24.9653C88.8802 24.4093 87.4901 23.3806 86.8785 23.9645C86.1835 24.6873 84.6822 25.8827 83.2922 27.2728C82.8196 25.9661 82.4026 24.0757 83.7092 23.3528C84.4598 22.9358 82.903 21.518 82.208 21.8794C80.5955 22.7968 80.9013 24.9931 81.3739 26.4943C81.5407 26.967 81.9021 27.6342 82.2914 28.357C80.4843 30.4421 79.4557 32.7218 81.9299 34.3064C84.0428 35.6687 85.6553 33.5558 85.1271 31.4707C84.9603 30.7479 84.6266 30.0529 84.293 29.3856C84.3486 29.33 84.4042 29.2744 84.432 29.2188C85.7943 27.8288 86.9341 26.4665 88.352 24.9653ZM82.9586 32.8052C81.9855 33.7782 82.6528 31.4985 82.8752 31.1093C82.9864 30.9147 83.1254 30.7201 83.2644 30.5533C83.5146 31.4429 83.5424 32.2492 82.9586 32.8052ZM141.056 4.92076C140.36 0.945215 135.106 0.583801 131.992 0.583801C127.516 0.555999 123.068 1.58464 118.787 2.83568C115.062 3.94772 111.364 5.33777 108.167 7.58966C105.276 9.59133 102.412 12.4826 101.912 16.1246C101.439 19.3495 103.302 21.796 105.581 23.742C102.885 24.4371 100.105 25.0487 97.2967 24.4927C96.8241 24.3815 96.6573 24.7707 96.7963 25.1599C96.9631 25.6325 97.5747 25.9661 98.0196 26.0495C101.133 26.6889 104.33 26.0495 107.416 25.1877C108.445 25.9383 109.529 26.7168 110.335 27.6898C110.002 27.9122 109.668 28.1068 109.335 28.3292C108.556 28.8852 107.806 29.4691 107.083 30.0807C106.415 30.6645 105.081 31.5263 104.914 32.4438C104.775 33.1388 105.387 33.806 105.943 34.1118C106.805 34.5844 107.75 34.3342 108.64 34.084C110.224 33.6114 112.754 32.4716 113.06 30.6089C113.171 29.9417 112.977 29.2744 112.643 28.6628C113.032 28.4404 113.421 28.2458 113.811 28.0234C116.507 26.6333 119.426 25.7437 122.429 25.3267C123.457 25.1877 122.04 23.6586 121.289 23.7698C117.814 24.2425 114.45 25.3545 111.42 27.0504C111.142 26.7724 110.864 26.4943 110.613 26.2719C110.057 25.7715 109.418 25.2711 108.779 24.7985C109.39 24.6039 109.974 24.4371 110.558 24.2703C114.867 22.9914 119.065 21.4068 123.124 19.5719C127.016 17.7926 130.936 15.8466 134.439 13.3723C136.051 12.2324 137.608 10.9814 138.915 9.50793C139.971 8.31248 141.334 6.61662 141.056 4.92076ZM109.529 31.5541C109.057 31.8321 108.584 32.0823 108.084 32.3048C107.861 32.3882 107.639 32.4438 107.416 32.5272C107.722 32.2492 108.028 32.0267 108.223 31.8599C108.806 31.3317 109.418 30.8313 110.057 30.3587C110.419 30.1085 110.78 29.8583 111.142 29.6081C111.058 30.4143 110.335 31.0259 109.529 31.5541ZM137.831 7.47845C137.108 8.42369 136.218 9.28552 135.301 10.0917C133.438 11.7042 131.353 13.0387 129.212 14.2619C124.458 16.9864 119.454 19.2383 114.311 21.0731C111.892 21.9628 109.418 22.7134 106.944 23.3806C105.192 21.9906 103.719 20.3781 103.691 18.0428C103.635 13.5669 107.806 10.0639 111.308 8.00667C115.34 5.61578 119.955 4.25354 124.486 3.2249C127.016 2.64108 129.574 2.22406 132.131 2.16846C133.966 2.11286 139.304 1.80704 139.221 4.64275C139.193 5.67139 138.414 6.70002 137.831 7.47845ZM130.341 24.1313C129.979 24.8263 129.562 25.5213 129.118 26.1885C128.923 26.4943 128.534 27.1894 128.117 27.6342C128.117 27.6342 128.117 27.6064 128.089 27.5786C128.061 27.2172 128.061 26.8002 128.089 26.4387C128.089 25.6325 128.117 24.8263 128.172 24.0479C128.2 23.464 126.782 22.1852 126.365 22.9358C125.587 24.4371 124.753 25.9939 123.53 27.2172C123.196 27.523 122.696 27.7176 122.696 28.1068C122.64 27.7176 122.779 27.1894 122.807 26.9114C122.918 25.8827 123.113 24.8819 123.363 23.881C123.53 23.1582 121.695 22.074 121.5 22.9358C121.027 24.8541 119.804 29.0798 122.779 29.6915C123.919 29.9417 124.947 28.8574 125.642 28.0512C125.865 27.801 126.087 27.523 126.282 27.245C126.476 28.1346 126.866 28.913 127.672 29.3856C128.534 29.8583 129.201 29.6081 129.785 28.8852C130.674 27.801 131.425 26.6055 132.092 25.3823C132.482 24.6595 130.73 23.4362 130.341 24.1313ZM150.249 23.9645C149.916 24.6317 149.526 25.2989 149.137 25.9383C148.637 26.7446 147.858 28.2736 146.885 28.5794C145.968 28.8852 145.634 27.6342 145.023 27.1894C144.522 26.8558 143.938 26.7168 143.41 27.0226C142.437 27.523 141.631 28.3848 140.741 28.9686C140.602 29.0798 140.463 29.1632 140.296 29.2466C140.352 29.7193 140.352 29.7471 140.296 29.33C140.213 28.774 140.185 28.1902 140.157 27.6342C140.046 26.2719 140.185 24.1591 138.323 23.9088C136.988 23.742 135.459 25.7715 134.625 26.5777C133.958 27.1894 133.318 27.8288 132.54 28.2736C132.429 28.357 132.345 28.4126 132.234 28.4682C132.206 28.3014 132.179 28.1902 132.179 28.079C132.123 26.7724 132.318 25.4379 132.512 24.1313C132.623 23.3806 130.788 22.3242 130.649 23.186C130.371 25.0487 129.537 28.6072 131.4 29.9139C132.735 30.8591 134.125 29.7749 135.153 28.913C135.765 28.4126 136.321 27.8566 136.877 27.3284C137.238 26.967 137.711 26.4109 138.239 25.9939C138.239 26.1051 138.239 26.2163 138.267 26.3275C138.323 27.0226 138.35 27.7454 138.406 28.4404C138.517 29.33 138.823 30.1085 139.629 30.5811C141.464 31.7487 143.077 29.7471 144.606 28.6906C144.661 28.7462 144.689 28.8018 144.745 28.8296C144.967 29.052 145.189 29.2744 145.44 29.4412C145.968 29.8305 146.607 30.1085 147.247 30.1919C148.136 30.3031 148.72 29.8861 149.304 29.2744C150.416 28.1346 151.25 26.6333 151.973 25.2155C152.362 24.4649 150.611 23.2972 150.249 23.9645ZM169.96 23.9645C169.626 24.6317 169.237 25.2989 168.848 25.9383C168.347 26.7446 167.569 28.2736 166.596 28.5794C165.678 28.8852 165.345 27.6342 164.733 27.1894C164.233 26.8558 163.649 26.7168 163.121 27.0226C162.148 27.523 161.341 28.3848 160.452 28.9686C160.313 29.0798 160.174 29.1632 160.007 29.2466C160.063 29.7193 160.063 29.7471 160.007 29.33C159.924 28.774 159.896 28.1902 159.868 27.6342C159.757 26.2719 159.896 24.1591 158.033 23.9088C156.699 23.742 155.17 25.7715 154.335 26.5777C153.668 27.1894 153.029 27.8288 152.25 28.2736C152.139 28.357 152.056 28.4126 151.945 28.4682C151.917 28.3014 151.889 28.1902 151.889 28.079C151.833 26.7724 152.028 25.4379 152.223 24.1313C152.334 23.3806 150.499 22.3242 150.36 23.186C150.082 25.0487 149.248 28.6072 151.111 29.9139C152.445 30.8591 153.835 29.7749 154.864 28.913C155.475 28.4126 156.031 27.8566 156.587 27.3284C156.949 26.967 157.421 26.4109 157.95 25.9939C157.95 26.1051 157.95 26.2163 157.977 26.3275C158.033 27.0226 158.061 27.7454 158.116 28.4404C158.228 29.33 158.533 30.1085 159.34 30.5811C161.175 31.7487 162.787 29.7471 164.316 28.6906C164.372 28.7462 164.399 28.8018 164.455 28.8296C164.677 29.052 164.9 29.2744 165.15 29.4412C165.678 29.8305 166.318 30.1085 166.957 30.1919C167.847 30.3031 168.431 29.8861 169.014 29.2744C170.126 28.1346 170.961 26.6333 171.683 25.2155C172.073 24.4649 170.321 23.2972 169.96 23.9645ZM177.019 23.9645C175.907 25.7159 173.961 27.1338 171.987 27.801C171.821 27.8566 171.32 27.8844 171.014 27.94C171.014 27.6342 171.014 27.1894 171.042 27.0226C171.098 27.0226 171.153 26.9948 171.209 26.967C172.238 26.2997 173.572 25.2989 174.1 24.1313C174.517 23.1582 173.767 22.213 172.794 21.9906C171.682 21.7682 170.709 22.908 170.153 23.742C169.457 24.7707 168.957 26.1885 169.096 27.4396C169.346 29.5803 171.709 29.8583 173.35 29.3022C175.435 28.6072 177.548 27.0782 178.743 25.2155C179.188 24.5483 177.464 23.2972 177.019 23.9645ZM184.911 24.1313C184.411 26.3275 183.743 28.5238 182.881 30.6367C182.492 31.6097 182.047 32.5828 181.547 33.5002C181.325 33.9172 181.102 34.362 180.796 34.6956C180.685 34.8068 180.407 34.9458 180.213 35.0849C180.24 34.8624 180.185 34.5566 180.213 34.4454C180.268 33.1944 180.491 31.9433 180.769 30.7201C181.047 29.6637 181.575 28.496 181.38 27.384C181.158 26.0773 180.018 25.3545 178.962 24.5761C180.157 19.9055 181.464 15.3739 182.02 10.5644C182.325 8.03447 182.77 4.58715 180.574 2.72448C178.378 0.889613 176.154 2.44647 175.208 4.67055C173.068 9.70253 172.54 16.1246 174.791 21.24C175.292 22.352 175.931 23.3806 176.765 24.2703C176.849 24.3815 176.96 24.4927 177.099 24.6039C177.293 24.9097 177.655 25.1877 178.016 25.2989C178.795 25.9105 179.601 26.5777 179.545 27.3006C179.434 28.635 178.823 29.9417 178.6 31.2761C178.406 32.4994 177.961 34.3342 178.628 35.4741C179.156 36.4193 180.352 36.9753 181.408 36.6973C182.659 36.3637 183.243 34.8902 183.771 33.8338C185.106 31.0537 186.106 28.079 186.746 25.0765C186.913 24.3259 185.078 23.2416 184.911 24.1313ZM177.293 22.908C174.791 19.2105 174.875 13.8171 175.792 9.64693C176.07 8.34028 176.459 7.00583 177.015 5.75479C177.21 5.30997 177.432 4.86516 177.71 4.47594C178.072 4.03113 179.101 3.08589 179.74 3.61411C180.574 4.28134 180.435 6.47762 180.407 7.42285C180.324 8.7017 180.157 9.98054 179.962 11.2594C179.406 15.2349 178.294 19.0437 177.293 22.908Z" fill="white"/>
</svg>
